<?xml version="1.0" encoding="UTF-8" standalone="no"?><svg xmlns="http://www.w3.org/2000/svg" xmlns:xlink="http://www.w3.org/1999/xlink" contentScriptType="application/ecmascript" contentStyleType="text/css" height="1510px" preserveAspectRatio="none" style="width:1534px;height:1510px;" version="1.1" viewBox="0 0 1534 1510" width="1534px" zoomAndPan="magnify"><defs><filter height="300%" id="f19pe4z79h9kdu" width="300%" x="-1" y="-1"><feGaussianBlur result="blurOut" stdDeviation="2.0"/><feColorMatrix in="blurOut" result="blurOut2" type="matrix" values="0 0 0 0 0 0 0 0 0 0 0 0 0 0 0 0 0 0 .4 0"/><feOffset dx="4.0" dy="4.0" in="blurOut2" result="blurOut3"/><feBlend in="SourceGraphic" in2="blurOut3" mode="normal"/></filter></defs><g><text fill="#000000" font-family="sans-serif" font-size="18" lengthAdjust="spacingAndGlyphs" textLength="427" x="497.5" y="16.708">Diagrama de Classes - Simulador de Hidrômetro</text><!--MD5=[84718776d214be480e4c259efcb737fc]
class Main--><rect fill="#FEFECE" filter="url(#f19pe4z79h9kdu)" height="60.8047" id="Main" style="stroke: #A80036; stroke-width: 1.5;" width="88" x="708.5" y="28.9531"/><ellipse cx="735.65" cy="44.9531" fill="#ADD1B2" rx="11" ry="11" style="stroke: #A80036; stroke-width: 1.0;"/><path d="M738.6188,50.5938 Q738.0406,50.8906 737.4,51.0313 Q736.7594,51.1875 736.0563,51.1875 Q733.5563,51.1875 732.2281,49.5469 Q730.9156,47.8906 730.9156,44.7656 Q730.9156,41.6406 732.2281,39.9844 Q733.5563,38.3281 736.0563,38.3281 Q736.7594,38.3281 737.4,38.4844 Q738.0563,38.6406 738.6188,38.9375 L738.6188,41.6563 Q737.9938,41.0781 737.4,40.8125 Q736.8063,40.5313 736.1813,40.5313 Q734.8375,40.5313 734.15,41.6094 Q733.4625,42.6719 733.4625,44.7656 Q733.4625,46.8594 734.15,47.9375 Q734.8375,49 736.1813,49 Q736.8063,49 737.4,48.7344 Q737.9938,48.4531 738.6188,47.875 L738.6188,50.5938 Z "/><text fill="#000000" font-family="sans-serif" font-size="12" lengthAdjust="spacingAndGlyphs" textLength="29" x="752.35" y="49.1074">Main</text><line style="stroke: #A80036; stroke-width: 1.5;" x1="709.5" x2="795.5" y1="60.9531" y2="60.9531"/><line style="stroke: #A80036; stroke-width: 1.5;" x1="709.5" x2="795.5" y1="68.9531" y2="68.9531"/><ellipse cx="719.5" cy="79.9531" fill="#84BE84" rx="3" ry="3" style="stroke: #038048; stroke-width: 1.0;"/><text fill="#000000" font-family="sans-serif" font-size="11" lengthAdjust="spacingAndGlyphs" textLength="62" x="728.5" y="83.1636">main() : int</text><!--MD5=[e78d3bd29d68b8fbdb4aae8710e3db25]
class Simulator--><rect fill="#FEFECE" filter="url(#f19pe4z79h9kdu)" height="342.5078" id="Simulator" style="stroke: #A80036; stroke-width: 1.5;" width="243" x="716" y="166.9531"/><ellipse cx="803.75" cy="182.9531" fill="#ADD1B2" rx="11" ry="11" style="stroke: #A80036; stroke-width: 1.0;"/><path d="M806.7188,188.5938 Q806.1406,188.8906 805.5,189.0313 Q804.8594,189.1875 804.1563,189.1875 Q801.6563,189.1875 800.3281,187.5469 Q799.0156,185.8906 799.0156,182.7656 Q799.0156,179.6406 800.3281,177.9844 Q801.6563,176.3281 804.1563,176.3281 Q804.8594,176.3281 805.5,176.4844 Q806.1563,176.6406 806.7188,176.9375 L806.7188,179.6563 Q806.0938,179.0781 805.5,178.8125 Q804.9063,178.5313 804.2813,178.5313 Q802.9375,178.5313 802.25,179.6094 Q801.5625,180.6719 801.5625,182.7656 Q801.5625,184.8594 802.25,185.9375 Q802.9375,187 804.2813,187 Q804.9063,187 805.5,186.7344 Q806.0938,186.4531 806.7188,185.875 L806.7188,188.5938 Z "/><text fill="#000000" font-family="sans-serif" font-size="12" lengthAdjust="spacingAndGlyphs" textLength="59" x="824.25" y="187.1074">Simulator</text><line style="stroke: #A80036; stroke-width: 1.5;" x1="717" x2="958" y1="198.9531" y2="198.9531"/><rect fill="none" height="6" style="stroke: #C82930; stroke-width: 1.0;" width="6" x="724" y="206.9531"/><text fill="#000000" font-family="sans-serif" font-size="11" lengthAdjust="spacingAndGlyphs" textLength="135" x="736" y="213.1636">running : atomic&lt;bool&gt;</text><rect fill="none" height="6" style="stroke: #C82930; stroke-width: 1.0;" width="6" x="724" y="219.7578"/><text fill="#000000" font-family="sans-serif" font-size="11" lengthAdjust="spacingAndGlyphs" textLength="217" x="736" y="225.9683">hidrometer : unique_ptr&lt;Hidrometer&gt;</text><rect fill="none" height="6" style="stroke: #C82930; stroke-width: 1.0;" width="6" x="724" y="232.5625"/><text fill="#000000" font-family="sans-serif" font-size="11" lengthAdjust="spacingAndGlyphs" textLength="117" x="736" y="238.7729">inputThread : thread</text><rect fill="none" height="6" style="stroke: #C82930; stroke-width: 1.0;" width="6" x="724" y="245.3672"/><text fill="#000000" font-family="sans-serif" font-size="11" lengthAdjust="spacingAndGlyphs" textLength="124" x="736" y="251.5776">imageThread : thread</text><rect fill="none" height="6" style="stroke: #C82930; stroke-width: 1.0;" width="6" x="724" y="258.1719"/><text fill="#000000" font-family="sans-serif" font-size="11" lengthAdjust="spacingAndGlyphs" textLength="82" x="736" y="264.3823">image : Image</text><text fill="#000000" font-family="sans-serif" font-size="11" lengthAdjust="spacingAndGlyphs" textLength="0" x="740" y="277.187"/><text fill="#000000" font-family="sans-serif" font-size="11" lengthAdjust="spacingAndGlyphs" textLength="0" x="740" y="289.9917"/><text fill="#000000" font-family="sans-serif" font-size="11" lengthAdjust="spacingAndGlyphs" textLength="70" x="736" y="302.7964">«Controller»</text><line style="stroke: #A80036; stroke-width: 1.5;" x1="717" x2="958" y1="309.3906" y2="309.3906"/><ellipse cx="727" cy="320.3906" fill="#84BE84" rx="3" ry="3" style="stroke: #038048; stroke-width: 1.0;"/><text fill="#000000" font-family="sans-serif" font-size="11" lengthAdjust="spacingAndGlyphs" textLength="63" x="736" y="323.6011">Simulator()</text><ellipse cx="727" cy="333.1953" fill="#84BE84" rx="3" ry="3" style="stroke: #038048; stroke-width: 1.0;"/><text fill="#000000" font-family="sans-serif" font-size="11" lengthAdjust="spacingAndGlyphs" textLength="72" x="736" y="336.4058">~Simulator()</text><ellipse cx="727" cy="346" fill="#84BE84" rx="3" ry="3" style="stroke: #038048; stroke-width: 1.0;"/><text fill="#000000" font-family="sans-serif" font-size="11" lengthAdjust="spacingAndGlyphs" textLength="172" x="736" y="349.2104">getHidrometer() : Hidrometer*</text><ellipse cx="727" cy="358.8047" fill="#84BE84" rx="3" ry="3" style="stroke: #038048; stroke-width: 1.0;"/><text fill="#000000" font-family="sans-serif" font-size="11" lengthAdjust="spacingAndGlyphs" textLength="103" x="736" y="362.0151">getPipeIN() : Pipe*</text><ellipse cx="727" cy="371.6094" fill="#84BE84" rx="3" ry="3" style="stroke: #038048; stroke-width: 1.0;"/><text fill="#000000" font-family="sans-serif" font-size="11" lengthAdjust="spacingAndGlyphs" textLength="116" x="736" y="374.8198">getPipeOUT() : Pipe*</text><ellipse cx="727" cy="384.4141" fill="#84BE84" rx="3" ry="3" style="stroke: #038048; stroke-width: 1.0;"/><text fill="#000000" font-family="sans-serif" font-size="11" lengthAdjust="spacingAndGlyphs" textLength="97" x="736" y="387.6245">getCounter() : int</text><ellipse cx="727" cy="397.2188" fill="#84BE84" rx="3" ry="3" style="stroke: #038048; stroke-width: 1.0;"/><text fill="#000000" font-family="sans-serif" font-size="11" lengthAdjust="spacingAndGlyphs" textLength="163" x="736" y="400.4292">getHidrometerStatus() : bool</text><ellipse cx="727" cy="410.0234" fill="#84BE84" rx="3" ry="3" style="stroke: #038048; stroke-width: 1.0;"/><text fill="#000000" font-family="sans-serif" font-size="11" lengthAdjust="spacingAndGlyphs" textLength="99" x="736" y="413.2339">isRunning() : bool</text><ellipse cx="727" cy="422.8281" fill="#84BE84" rx="3" ry="3" style="stroke: #038048; stroke-width: 1.0;"/><text fill="#000000" font-family="sans-serif" font-size="11" lengthAdjust="spacingAndGlyphs" textLength="62" x="736" y="426.0386">run() : void</text><ellipse cx="727" cy="435.6328" fill="#84BE84" rx="3" ry="3" style="stroke: #038048; stroke-width: 1.0;"/><text fill="#000000" font-family="sans-serif" font-size="11" lengthAdjust="spacingAndGlyphs" textLength="68" x="736" y="438.8433">stop() : void</text><ellipse cx="727" cy="448.4375" fill="#84BE84" rx="3" ry="3" style="stroke: #038048; stroke-width: 1.0;"/><text fill="#000000" font-family="sans-serif" font-size="11" lengthAdjust="spacingAndGlyphs" textLength="129" x="736" y="451.6479">generateImage() : void</text><text fill="#000000" font-family="sans-serif" font-size="11" lengthAdjust="spacingAndGlyphs" textLength="0" x="740" y="464.4526"/><rect fill="#F24D5C" height="6" style="stroke: #C82930; stroke-width: 1.0;" width="6" x="724" y="471.0469"/><text fill="#000000" font-family="sans-serif" font-size="11" lengthAdjust="spacingAndGlyphs" textLength="100" x="736" y="477.2573">throwFlow() : void</text><rect fill="#F24D5C" height="6" style="stroke: #C82930; stroke-width: 1.0;" width="6" x="724" y="483.8516"/><text fill="#000000" font-family="sans-serif" font-size="11" lengthAdjust="spacingAndGlyphs" textLength="117" x="736" y="490.062">updateImage() : void</text><rect fill="#F24D5C" height="6" style="stroke: #C82930; stroke-width: 1.0;" width="6" x="724" y="496.6563"/><text fill="#000000" font-family="sans-serif" font-size="11" lengthAdjust="spacingAndGlyphs" textLength="145" x="736" y="502.8667">imageUpdateLoop() : void</text><!--MD5=[4285a8eeb13093a62a2d8316f05da5d4]
class Hidrometer--><rect fill="#FEFECE" filter="url(#f19pe4z79h9kdu)" height="304.0938" id="Hidrometer" style="stroke: #A80036; stroke-width: 1.5;" width="735" x="6" y="586.9531"/><ellipse cx="334.25" cy="602.9531" fill="#ADD1B2" rx="11" ry="11" style="stroke: #A80036; stroke-width: 1.0;"/><path d="M337.2188,608.5938 Q336.6406,608.8906 336,609.0313 Q335.3594,609.1875 334.6563,609.1875 Q332.1563,609.1875 330.8281,607.5469 Q329.5156,605.8906 329.5156,602.7656 Q329.5156,599.6406 330.8281,597.9844 Q332.1563,596.3281 334.6563,596.3281 Q335.3594,596.3281 336,596.4844 Q336.6563,596.6406 337.2188,596.9375 L337.2188,599.6563 Q336.5938,599.0781 336,598.8125 Q335.4063,598.5313 334.7813,598.5313 Q333.4375,598.5313 332.75,599.6094 Q332.0625,600.6719 332.0625,602.7656 Q332.0625,604.8594 332.75,605.9375 Q333.4375,607 334.7813,607 Q335.4063,607 336,606.7344 Q336.5938,606.4531 337.2188,605.875 L337.2188,608.5938 Z "/><text fill="#000000" font-family="sans-serif" font-size="12" lengthAdjust="spacingAndGlyphs" textLength="70" x="354.75" y="607.1074">Hidrometer</text><line style="stroke: #A80036; stroke-width: 1.5;" x1="7" x2="740" y1="618.9531" y2="618.9531"/><rect fill="none" height="6" style="stroke: #C82930; stroke-width: 1.0;" width="6" x="14" y="626.9531"/><text fill="#000000" font-family="sans-serif" font-size="11" lengthAdjust="spacingAndGlyphs" textLength="149" x="26" y="633.1636">pipeIN : unique_ptr&lt;Pipe&gt;</text><rect fill="none" height="6" style="stroke: #C82930; stroke-width: 1.0;" width="6" x="14" y="639.7578"/><text fill="#000000" font-family="sans-serif" font-size="11" lengthAdjust="spacingAndGlyphs" textLength="162" x="26" y="645.9683">pipeOUT : unique_ptr&lt;Pipe&gt;</text><rect fill="none" height="6" style="stroke: #C82930; stroke-width: 1.0;" width="6" x="14" y="652.5625"/><text fill="#000000" font-family="sans-serif" font-size="11" lengthAdjust="spacingAndGlyphs" textLength="131" x="26" y="658.7729">update_thread : thread</text><rect fill="none" height="6" style="stroke: #C82930; stroke-width: 1.0;" width="6" x="14" y="665.3672"/><text fill="#000000" font-family="sans-serif" font-size="11" lengthAdjust="spacingAndGlyphs" textLength="135" x="26" y="671.5776">running : atomic&lt;bool&gt;</text><rect fill="none" height="6" style="stroke: #C82930; stroke-width: 1.0;" width="6" x="14" y="678.1719"/><text fill="#000000" font-family="sans-serif" font-size="11" lengthAdjust="spacingAndGlyphs" textLength="125" x="26" y="684.3823">counter : atomic&lt;int&gt;</text><rect fill="none" height="6" style="stroke: #C82930; stroke-width: 1.0;" width="6" x="14" y="690.9766"/><text fill="#000000" font-family="sans-serif" font-size="11" lengthAdjust="spacingAndGlyphs" textLength="128" x="26" y="697.187">status : atomic&lt;bool&gt;</text><rect fill="none" height="6" style="stroke: #C82930; stroke-width: 1.0;" width="6" x="14" y="703.7813"/><text fill="#000000" font-family="sans-serif" font-size="11" lengthAdjust="spacingAndGlyphs" textLength="107" x="26" y="709.9917">counterFloat : float</text><text fill="#000000" font-family="sans-serif" font-size="11" lengthAdjust="spacingAndGlyphs" textLength="0" x="30" y="722.7964"/><text fill="#000000" font-family="sans-serif" font-size="11" lengthAdjust="spacingAndGlyphs" textLength="0" x="30" y="735.6011"/><text fill="#000000" font-family="sans-serif" font-size="11" lengthAdjust="spacingAndGlyphs" textLength="45" x="26" y="748.4058">«Entity»</text><line style="stroke: #A80036; stroke-width: 1.5;" x1="7" x2="740" y1="755" y2="755"/><ellipse cx="17" cy="766" fill="#84BE84" rx="3" ry="3" style="stroke: #038048; stroke-width: 1.0;"/><text fill="#000000" font-family="sans-serif" font-size="11" lengthAdjust="spacingAndGlyphs" textLength="709" x="26" y="769.2104">Hidrometer(diameterIN: float, lengthIN: float, roughnessIN: float, diameterOUT: float, lengthOUT: float, roughnessOUT: float)</text><ellipse cx="17" cy="778.8047" fill="#84BE84" rx="3" ry="3" style="stroke: #038048; stroke-width: 1.0;"/><text fill="#000000" font-family="sans-serif" font-size="11" lengthAdjust="spacingAndGlyphs" textLength="81" x="26" y="782.0151">~Hidrometer()</text><ellipse cx="17" cy="791.6094" fill="#84BE84" rx="3" ry="3" style="stroke: #038048; stroke-width: 1.0;"/><text fill="#000000" font-family="sans-serif" font-size="11" lengthAdjust="spacingAndGlyphs" textLength="103" x="26" y="794.8198">getPipeIN() : Pipe*</text><ellipse cx="17" cy="804.4141" fill="#84BE84" rx="3" ry="3" style="stroke: #038048; stroke-width: 1.0;"/><text fill="#000000" font-family="sans-serif" font-size="11" lengthAdjust="spacingAndGlyphs" textLength="116" x="26" y="807.6245">getPipeOUT() : Pipe*</text><ellipse cx="17" cy="817.2188" fill="#84BE84" rx="3" ry="3" style="stroke: #038048; stroke-width: 1.0;"/><text fill="#000000" font-family="sans-serif" font-size="11" lengthAdjust="spacingAndGlyphs" textLength="97" x="26" y="820.4292">getCounter() : int</text><ellipse cx="17" cy="830.0234" fill="#84BE84" rx="3" ry="3" style="stroke: #038048; stroke-width: 1.0;"/><text fill="#000000" font-family="sans-serif" font-size="11" lengthAdjust="spacingAndGlyphs" textLength="99" x="26" y="833.2339">getStatus() : bool</text><ellipse cx="17" cy="842.8281" fill="#84BE84" rx="3" ry="3" style="stroke: #038048; stroke-width: 1.0;"/><text fill="#000000" font-family="sans-serif" font-size="11" lengthAdjust="spacingAndGlyphs" textLength="87" x="26" y="846.0386">activate() : void</text><ellipse cx="17" cy="855.6328" fill="#84BE84" rx="3" ry="3" style="stroke: #038048; stroke-width: 1.0;"/><text fill="#000000" font-family="sans-serif" font-size="11" lengthAdjust="spacingAndGlyphs" textLength="101" x="26" y="858.8433">deactivate() : void</text><text fill="#000000" font-family="sans-serif" font-size="11" lengthAdjust="spacingAndGlyphs" textLength="0" x="30" y="871.6479"/><rect fill="#F24D5C" height="6" style="stroke: #C82930; stroke-width: 1.0;" width="6" x="14" y="878.2422"/><text fill="#000000" font-family="sans-serif" font-size="11" lengthAdjust="spacingAndGlyphs" textLength="82" x="26" y="884.4526">update() : void</text><!--MD5=[4dfa3bfde5407297cdf87f3e284398fb]
class Pipe--><rect fill="#FEFECE" filter="url(#f19pe4z79h9kdu)" height="240.0703" id="Pipe" style="stroke: #A80036; stroke-width: 1.5;" width="474" x="244.5" y="967.9531"/><ellipse cx="463.75" cy="983.9531" fill="#ADD1B2" rx="11" ry="11" style="stroke: #A80036; stroke-width: 1.0;"/><path d="M466.7188,989.5938 Q466.1406,989.8906 465.5,990.0313 Q464.8594,990.1875 464.1563,990.1875 Q461.6563,990.1875 460.3281,988.5469 Q459.0156,986.8906 459.0156,983.7656 Q459.0156,980.6406 460.3281,978.9844 Q461.6563,977.3281 464.1563,977.3281 Q464.8594,977.3281 465.5,977.4844 Q466.1563,977.6406 466.7188,977.9375 L466.7188,980.6563 Q466.0938,980.0781 465.5,979.8125 Q464.9063,979.5313 464.2813,979.5313 Q462.9375,979.5313 462.25,980.6094 Q461.5625,981.6719 461.5625,983.7656 Q461.5625,985.8594 462.25,986.9375 Q462.9375,988 464.2813,988 Q464.9063,988 465.5,987.7344 Q466.0938,987.4531 466.7188,986.875 L466.7188,989.5938 Z "/><text fill="#000000" font-family="sans-serif" font-size="12" lengthAdjust="spacingAndGlyphs" textLength="27" x="484.25" y="988.1074">Pipe</text><line style="stroke: #A80036; stroke-width: 1.5;" x1="245.5" x2="717.5" y1="999.9531" y2="999.9531"/><rect fill="none" height="6" style="stroke: #C82930; stroke-width: 1.0;" width="6" x="252.5" y="1007.9531"/><text fill="#000000" font-family="sans-serif" font-size="11" lengthAdjust="spacingAndGlyphs" textLength="85" x="264.5" y="1014.1636">flowRate : float</text><rect fill="none" height="6" style="stroke: #C82930; stroke-width: 1.0;" width="6" x="252.5" y="1020.7578"/><text fill="#000000" font-family="sans-serif" font-size="11" lengthAdjust="spacingAndGlyphs" textLength="86" x="264.5" y="1026.9683">maxFlow : float</text><rect fill="none" height="6" style="stroke: #C82930; stroke-width: 1.0;" width="6" x="252.5" y="1033.5625"/><text fill="#000000" font-family="sans-serif" font-size="11" lengthAdjust="spacingAndGlyphs" textLength="88" x="264.5" y="1039.7729">diameter : float</text><rect fill="none" height="6" style="stroke: #C82930; stroke-width: 1.0;" width="6" x="252.5" y="1046.3672"/><text fill="#000000" font-family="sans-serif" font-size="11" lengthAdjust="spacingAndGlyphs" textLength="72" x="264.5" y="1052.5776">length : float</text><rect fill="none" height="6" style="stroke: #C82930; stroke-width: 1.0;" width="6" x="252.5" y="1059.1719"/><text fill="#000000" font-family="sans-serif" font-size="11" lengthAdjust="spacingAndGlyphs" textLength="98" x="264.5" y="1065.3823">roughness : float</text><text fill="#000000" font-family="sans-serif" font-size="11" lengthAdjust="spacingAndGlyphs" textLength="0" x="268.5" y="1078.187"/><text fill="#000000" font-family="sans-serif" font-size="11" lengthAdjust="spacingAndGlyphs" textLength="45" x="264.5" y="1090.9917">«Entity»</text><line style="stroke: #A80036; stroke-width: 1.5;" x1="245.5" x2="717.5" y1="1097.5859" y2="1097.5859"/><ellipse cx="255.5" cy="1108.5859" fill="#84BE84" rx="3" ry="3" style="stroke: #038048; stroke-width: 1.0;"/><text fill="#000000" font-family="sans-serif" font-size="11" lengthAdjust="spacingAndGlyphs" textLength="294" x="264.5" y="1111.7964">Pipe(diameter: float, length: float, roughness: float)</text><ellipse cx="255.5" cy="1121.3906" fill="#84BE84" rx="3" ry="3" style="stroke: #038048; stroke-width: 1.0;"/><text fill="#000000" font-family="sans-serif" font-size="11" lengthAdjust="spacingAndGlyphs" textLength="115" x="264.5" y="1124.6011">getDiameter() : float</text><ellipse cx="255.5" cy="1134.1953" fill="#84BE84" rx="3" ry="3" style="stroke: #038048; stroke-width: 1.0;"/><text fill="#000000" font-family="sans-serif" font-size="11" lengthAdjust="spacingAndGlyphs" textLength="101" x="264.5" y="1137.4058">getLength() : float</text><ellipse cx="255.5" cy="1147" fill="#84BE84" rx="3" ry="3" style="stroke: #038048; stroke-width: 1.0;"/><text fill="#000000" font-family="sans-serif" font-size="11" lengthAdjust="spacingAndGlyphs" textLength="126" x="264.5" y="1150.2104">getRoughness() : float</text><ellipse cx="255.5" cy="1159.8047" fill="#84BE84" rx="3" ry="3" style="stroke: #038048; stroke-width: 1.0;"/><text fill="#000000" font-family="sans-serif" font-size="11" lengthAdjust="spacingAndGlyphs" textLength="113" x="264.5" y="1163.0151">getFlowRate() : float</text><ellipse cx="255.5" cy="1172.6094" fill="#84BE84" rx="3" ry="3" style="stroke: #038048; stroke-width: 1.0;"/><text fill="#000000" font-family="sans-serif" font-size="11" lengthAdjust="spacingAndGlyphs" textLength="110" x="264.5" y="1175.8198">getMaxFlow() : float</text><ellipse cx="255.5" cy="1185.4141" fill="#84BE84" rx="3" ry="3" style="stroke: #038048; stroke-width: 1.0;"/><text fill="#000000" font-family="sans-serif" font-size="11" lengthAdjust="spacingAndGlyphs" textLength="448" x="264.5" y="1188.6245">maxFlowForDeltaP(deltaP: double, rho: double, mu: double, g: double) : double</text><ellipse cx="255.5" cy="1198.2188" fill="#84BE84" rx="3" ry="3" style="stroke: #038048; stroke-width: 1.0;"/><text fill="#000000" font-family="sans-serif" font-size="11" lengthAdjust="spacingAndGlyphs" textLength="192" x="264.5" y="1201.4292">setFlowRate(flowRate: float) : void</text><!--MD5=[964f074a2dd77d134c21b891bb53e381]
class Image--><rect fill="#FEFECE" filter="url(#f19pe4z79h9kdu)" height="163.2422" id="Image" style="stroke: #A80036; stroke-width: 1.5;" width="315" x="776" y="657.4531"/><ellipse cx="910.25" cy="673.4531" fill="#ADD1B2" rx="11" ry="11" style="stroke: #A80036; stroke-width: 1.0;"/><path d="M913.2188,679.0938 Q912.6406,679.3906 912,679.5313 Q911.3594,679.6875 910.6563,679.6875 Q908.1563,679.6875 906.8281,678.0469 Q905.5156,676.3906 905.5156,673.2656 Q905.5156,670.1406 906.8281,668.4844 Q908.1563,666.8281 910.6563,666.8281 Q911.3594,666.8281 912,666.9844 Q912.6563,667.1406 913.2188,667.4375 L913.2188,670.1563 Q912.5938,669.5781 912,669.3125 Q911.4063,669.0313 910.7813,669.0313 Q909.4375,669.0313 908.75,670.1094 Q908.0625,671.1719 908.0625,673.2656 Q908.0625,675.3594 908.75,676.4375 Q909.4375,677.5 910.7813,677.5 Q911.4063,677.5 912,677.2344 Q912.5938,676.9531 913.2188,676.375 L913.2188,679.0938 Z "/><text fill="#000000" font-family="sans-serif" font-size="12" lengthAdjust="spacingAndGlyphs" textLength="38" x="930.75" y="677.6074">Image</text><line style="stroke: #A80036; stroke-width: 1.5;" x1="777" x2="1090" y1="689.4531" y2="689.4531"/><rect fill="none" height="6" style="stroke: #C82930; stroke-width: 1.0;" width="6" x="784" y="697.4531"/><text fill="#000000" font-family="sans-serif" font-size="11" lengthAdjust="spacingAndGlyphs" textLength="148" x="796" y="703.6636">surface : cairo_surface_t*</text><rect fill="none" height="6" style="stroke: #C82930; stroke-width: 1.0;" width="6" x="784" y="710.2578"/><text fill="#000000" font-family="sans-serif" font-size="11" lengthAdjust="spacingAndGlyphs" textLength="67" x="796" y="716.4683">cr : cairo_t*</text><rect fill="none" height="6" style="stroke: #C82930; stroke-width: 1.0;" width="6" x="784" y="723.0625"/><text fill="#000000" font-family="sans-serif" font-size="11" lengthAdjust="spacingAndGlyphs" textLength="56" x="796" y="729.2729">width : int</text><rect fill="none" height="6" style="stroke: #C82930; stroke-width: 1.0;" width="6" x="784" y="735.8672"/><text fill="#000000" font-family="sans-serif" font-size="11" lengthAdjust="spacingAndGlyphs" textLength="61" x="796" y="742.0776">height : int</text><text fill="#000000" font-family="sans-serif" font-size="11" lengthAdjust="spacingAndGlyphs" textLength="0" x="800" y="754.8823"/><text fill="#000000" font-family="sans-serif" font-size="11" lengthAdjust="spacingAndGlyphs" textLength="45" x="796" y="767.687">«Utility»</text><line style="stroke: #A80036; stroke-width: 1.5;" x1="777" x2="1090" y1="774.2813" y2="774.2813"/><ellipse cx="787" cy="785.2813" fill="#84BE84" rx="3" ry="3" style="stroke: #038048; stroke-width: 1.0;"/><text fill="#000000" font-family="sans-serif" font-size="11" lengthAdjust="spacingAndGlyphs" textLength="160" x="796" y="788.4917">Image(width: int, height: int)</text><ellipse cx="787" cy="798.0859" fill="#84BE84" rx="3" ry="3" style="stroke: #038048; stroke-width: 1.0;"/><text fill="#000000" font-family="sans-serif" font-size="11" lengthAdjust="spacingAndGlyphs" textLength="52" x="796" y="801.2964">~Image()</text><ellipse cx="787" cy="810.8906" fill="#84BE84" rx="3" ry="3" style="stroke: #038048; stroke-width: 1.0;"/><text fill="#000000" font-family="sans-serif" font-size="11" lengthAdjust="spacingAndGlyphs" textLength="289" x="796" y="814.1011">generate_image(counter: int, flowRate: float) : void</text><!--MD5=[5d909b6c20725e19f5c6863827561ff4]
class Constants--><rect fill="#FEFECE" filter="url(#f19pe4z79h9kdu)" height="214.4609" id="Constants" style="stroke: #A80036; stroke-width: 1.5;" width="269" x="716" y="1284.9531"/><ellipse cx="814.25" cy="1300.9531" fill="#ADD1B2" rx="11" ry="11" style="stroke: #A80036; stroke-width: 1.0;"/><path d="M817.2188,1306.5938 Q816.6406,1306.8906 816,1307.0313 Q815.3594,1307.1875 814.6563,1307.1875 Q812.1563,1307.1875 810.8281,1305.5469 Q809.5156,1303.8906 809.5156,1300.7656 Q809.5156,1297.6406 810.8281,1295.9844 Q812.1563,1294.3281 814.6563,1294.3281 Q815.3594,1294.3281 816,1294.4844 Q816.6563,1294.6406 817.2188,1294.9375 L817.2188,1297.6563 Q816.5938,1297.0781 816,1296.8125 Q815.4063,1296.5313 814.7813,1296.5313 Q813.4375,1296.5313 812.75,1297.6094 Q812.0625,1298.6719 812.0625,1300.7656 Q812.0625,1302.8594 812.75,1303.9375 Q813.4375,1305 814.7813,1305 Q815.4063,1305 816,1304.7344 Q816.5938,1304.4531 817.2188,1303.875 L817.2188,1306.5938 Z "/><text fill="#000000" font-family="sans-serif" font-size="12" lengthAdjust="spacingAndGlyphs" textLength="64" x="834.75" y="1305.1074">Constants</text><line style="stroke: #A80036; stroke-width: 1.5;" x1="717" x2="984" y1="1316.9531" y2="1316.9531"/><ellipse cx="727" cy="1327.9531" fill="none" rx="3" ry="3" style="stroke: #038048; stroke-width: 1.0;"/><text fill="#000000" font-family="sans-serif" font-size="11" lengthAdjust="spacingAndGlyphs" text-decoration="underline" textLength="148" x="736" y="1331.1636">DIAMETER_IN : float = 0.1f</text><ellipse cx="727" cy="1340.7578" fill="none" rx="3" ry="3" style="stroke: #038048; stroke-width: 1.0;"/><text fill="#000000" font-family="sans-serif" font-size="11" lengthAdjust="spacingAndGlyphs" text-decoration="underline" textLength="138" x="736" y="1343.9683">LENGTH_IN : float = 1.0f</text><ellipse cx="727" cy="1353.5625" fill="none" rx="3" ry="3" style="stroke: #038048; stroke-width: 1.0;"/><text fill="#000000" font-family="sans-serif" font-size="11" lengthAdjust="spacingAndGlyphs" text-decoration="underline" textLength="186" x="736" y="1356.7729">ROUGHNESS_IN : float = 0.0001f</text><ellipse cx="727" cy="1366.3672" fill="none" rx="3" ry="3" style="stroke: #038048; stroke-width: 1.0;"/><text fill="#000000" font-family="sans-serif" font-size="11" lengthAdjust="spacingAndGlyphs" text-decoration="underline" textLength="161" x="736" y="1369.5776">DIAMETER_OUT : float = 0.1f</text><ellipse cx="727" cy="1379.1719" fill="none" rx="3" ry="3" style="stroke: #038048; stroke-width: 1.0;"/><text fill="#000000" font-family="sans-serif" font-size="11" lengthAdjust="spacingAndGlyphs" text-decoration="underline" textLength="151" x="736" y="1382.3823">LENGTH_OUT : float = 1.0f</text><ellipse cx="727" cy="1391.9766" fill="none" rx="3" ry="3" style="stroke: #038048; stroke-width: 1.0;"/><text fill="#000000" font-family="sans-serif" font-size="11" lengthAdjust="spacingAndGlyphs" text-decoration="underline" textLength="199" x="736" y="1395.187">ROUGHNESS_OUT : float = 0.0001f</text><ellipse cx="727" cy="1404.7813" fill="none" rx="3" ry="3" style="stroke: #038048; stroke-width: 1.0;"/><text fill="#000000" font-family="sans-serif" font-size="11" lengthAdjust="spacingAndGlyphs" text-decoration="underline" textLength="154" x="736" y="1407.9917">DEFAULT_WIDTH : int = 400</text><ellipse cx="727" cy="1417.5859" fill="none" rx="3" ry="3" style="stroke: #038048; stroke-width: 1.0;"/><text fill="#000000" font-family="sans-serif" font-size="11" lengthAdjust="spacingAndGlyphs" text-decoration="underline" textLength="161" x="736" y="1420.7964">DEFAULT_HEIGHT : int = 400</text><ellipse cx="727" cy="1430.3906" fill="none" rx="3" ry="3" style="stroke: #038048; stroke-width: 1.0;"/><text fill="#000000" font-family="sans-serif" font-size="11" lengthAdjust="spacingAndGlyphs" text-decoration="underline" textLength="243" x="736" y="1433.6011">M_PI : double = 3.14159265358979323846</text><ellipse cx="727" cy="1443.1953" fill="none" rx="3" ry="3" style="stroke: #038048; stroke-width: 1.0;"/><text fill="#000000" font-family="sans-serif" font-size="11" lengthAdjust="spacingAndGlyphs" text-decoration="underline" textLength="123" x="736" y="1446.4058">RHO : double = 998.0</text><ellipse cx="727" cy="1456" fill="none" rx="3" ry="3" style="stroke: #038048; stroke-width: 1.0;"/><text fill="#000000" font-family="sans-serif" font-size="11" lengthAdjust="spacingAndGlyphs" text-decoration="underline" textLength="134" x="736" y="1459.2104">MU : double = 1.002e-3</text><ellipse cx="727" cy="1468.8047" fill="none" rx="3" ry="3" style="stroke: #038048; stroke-width: 1.0;"/><text fill="#000000" font-family="sans-serif" font-size="11" lengthAdjust="spacingAndGlyphs" text-decoration="underline" textLength="122" x="736" y="1472.0151">G : double = 9.80665</text><text fill="#000000" font-family="sans-serif" font-size="11" lengthAdjust="spacingAndGlyphs" textLength="46" x="736" y="1484.8198">«Static»</text><line style="stroke: #A80036; stroke-width: 1.5;" x1="717" x2="984" y1="1491.4141" y2="1491.4141"/><path d="M832,31.9531 L832,87.3516 A0,0 0 0 0 832,87.3516 L910.35,87.3516 L889.87,166.8031 L918.35,87.3516 L1013,87.3516 A0,0 0 0 0 1013,87.3516 L1013,41.9531 L1003,31.9531 L832,31.9531 A0,0 0 0 0 832,31.9531 " fill="#FBFB77" filter="url(#f19pe4z79h9kdu)" style="stroke: #A80036; stroke-width: 1.0;"/><path d="M1003,31.9531 L1003,41.9531 L1013,41.9531 L1003,31.9531 " fill="#FBFB77" style="stroke: #A80036; stroke-width: 1.0;"/><text fill="#000000" font-family="sans-serif" font-size="13" lengthAdjust="spacingAndGlyphs" textLength="147" x="838" y="49.02">Gerencia threads para:</text><text fill="#000000" font-family="sans-serif" font-size="13" lengthAdjust="spacingAndGlyphs" textLength="125" x="838" y="64.1528">- Geração de vazão</text><text fill="#000000" font-family="sans-serif" font-size="13" lengthAdjust="spacingAndGlyphs" textLength="160" x="838" y="79.2856">- Atualização de imagem</text><path d="M280.5,318.4531 L280.5,358.7188 A0,0 0 0 0 280.5,358.7188 L369.5,358.7188 L373.5,586.5831 L377.5,358.7188 L466.5,358.7188 A0,0 0 0 0 466.5,358.7188 L466.5,328.4531 L456.5,318.4531 L280.5,318.4531 A0,0 0 0 0 280.5,318.4531 " fill="#FBFB77" filter="url(#f19pe4z79h9kdu)" style="stroke: #A80036; stroke-width: 1.0;"/><path d="M456.5,318.4531 L456.5,328.4531 L466.5,328.4531 L456.5,318.4531 " fill="#FBFB77" style="stroke: #A80036; stroke-width: 1.0;"/><text fill="#000000" font-family="sans-serif" font-size="13" lengthAdjust="spacingAndGlyphs" textLength="136" x="286.5" y="335.52">Possui thread própria</text><text fill="#000000" font-family="sans-serif" font-size="13" lengthAdjust="spacingAndGlyphs" textLength="165" x="286.5" y="350.6528">para atualização contínua</text><path d="M1126,718.9531 L1126,734.9531 L1091.05,738.9531 L1126,742.9531 L1126,759.2188 A0,0 0 0 0 1126,759.2188 L1343,759.2188 A0,0 0 0 0 1343,759.2188 L1343,728.9531 L1333,718.9531 L1126,718.9531 A0,0 0 0 0 1126,718.9531 " fill="#FBFB77" filter="url(#f19pe4z79h9kdu)" style="stroke: #A80036; stroke-width: 1.0;"/><path d="M1333,718.9531 L1333,728.9531 L1343,728.9531 L1333,718.9531 " fill="#FBFB77" style="stroke: #A80036; stroke-width: 1.0;"/><text fill="#000000" font-family="sans-serif" font-size="13" lengthAdjust="spacingAndGlyphs" textLength="141" x="1132" y="736.02">Utiliza biblioteca Cairo</text><text fill="#000000" font-family="sans-serif" font-size="13" lengthAdjust="spacingAndGlyphs" textLength="196" x="1132" y="751.1528">para geração de imagens PNG</text><!--MD5=[1506b1e4c800484870c4753578afeffe]
link Main to Simulator--><path d="M761.6,90.0931 C767.28,108.6331 775.13,134.2031 783.63,161.8931 " fill="none" id="Main-&gt;Simulator" style="stroke: #A80036; stroke-width: 1.0;"/><polygon fill="#A80036" points="785.11,166.7231,786.2884,156.945,783.6406,161.9439,778.6417,159.2961,785.11,166.7231" style="stroke: #A80036; stroke-width: 1.0;"/><text fill="#000000" font-family="sans-serif" font-size="13" lengthAdjust="spacingAndGlyphs" textLength="48" x="776.5" y="133.02">creates</text><!--MD5=[afe401bdb76e54f99d631d5d37bdf810]
reverse link Simulator to Hidrometer--><path d="M705.94,452.4431 C657.28,494.2331 601.31,542.3031 549.34,586.9331 " fill="none" id="Simulator&lt;-Hidrometer" style="stroke: #A80036; stroke-width: 1.0;"/><polygon fill="#A80036" points="715.89,443.8931,708.7317,444.7643,706.7826,451.707,713.9409,450.8358,715.89,443.8931" style="stroke: #A80036; stroke-width: 1.0;"/><text fill="#000000" font-family="sans-serif" font-size="13" lengthAdjust="spacingAndGlyphs" textLength="54" x="593.5" y="553.02">contains</text><!--MD5=[b629bd3ac5c74422f7fcbbe8e94cc3e0]
link Simulator to Hidrometer--><path d="M711.05,502.9131 C693.58,521.9731 675.19,540.4631 656.5,556.9531 C646.72,565.5731 636.5,574.0731 625.97,582.4031 " fill="none" id="Simulator-Hidrometer" style="stroke: #A80036; stroke-width: 1.0;"/><line style="stroke: #A80036; stroke-width: 1.0;" x1="626.0552" x2="621.1256" y1="587.4287" y2="581.128"/><line style="stroke: #A80036; stroke-width: 1.0;" x1="628.4179" x2="623.4883" y1="585.5801" y2="579.2794"/><line style="stroke: #A80036; stroke-width: 1.0;" x1="626.7407" x2="620.44" y1="581.8135" y2="586.7431"/><line style="stroke: #A80036; stroke-width: 1.0;" x1="710.3095" x2="716.2291" y1="497.7922" y2="503.1736"/><line style="stroke: #A80036; stroke-width: 1.0;" x1="708.2915" x2="714.2111" y1="500.012" y2="505.3934"/><line style="stroke: #A80036; stroke-width: 1.0;" x1="710.5786" x2="715.96" y1="503.4426" y2="497.5231"/><text fill="#000000" font-family="sans-serif" font-size="13" lengthAdjust="spacingAndGlyphs" textLength="8" x="674.5" y="553.02">1</text><!--MD5=[7414a9462ccd3652c86654364f452892]
reverse link Simulator to Image--><path d="M828.06,523.0631 C829.59,534.6131 831.7,545.9831 834.5,556.9531 C843.41,591.8231 860.59,627.2131 878.16,657.3431 " fill="none" id="Simulator&lt;-Image" style="stroke: #A80036; stroke-width: 1.0;"/><polygon fill="#A80036" points="826.56,509.9731,823.2649,516.3874,827.9185,521.896,831.2135,515.4817,826.56,509.9731" style="stroke: #A80036; stroke-width: 1.0;"/><text fill="#000000" font-family="sans-serif" font-size="13" lengthAdjust="spacingAndGlyphs" textLength="54" x="835.5" y="553.02">contains</text><!--MD5=[c6ae85044009b3c792fd46a6991e2d13]
link Simulator to Image--><path d="M888.86,517.1831 C890.81,524.8631 892.7,532.4731 894.5,539.9531 C903.09,575.7331 911.2,615.4831 917.77,649.9231 " fill="none" id="Simulator-Image" style="stroke: #A80036; stroke-width: 1.0;"/><line style="stroke: #A80036; stroke-width: 1.0;" x1="922.3367" x2="914.4762" y1="652.5093" y2="653.9964"/><line style="stroke: #A80036; stroke-width: 1.0;" x1="921.779" x2="913.9185" y1="649.5616" y2="651.0487"/><line style="stroke: #A80036; stroke-width: 1.0;" x1="917.6629" x2="919.15" y1="649.3226" y2="657.1831"/><line style="stroke: #A80036; stroke-width: 1.0;" x1="884.1608" x2="891.9093" y1="514.9824" y2="512.9923"/><line style="stroke: #A80036; stroke-width: 1.0;" x1="884.9071" x2="892.6556" y1="517.8881" y2="515.898"/><line style="stroke: #A80036; stroke-width: 1.0;" x1="889.0301" x2="887.04" y1="517.8616" y2="510.1131"/><text fill="#000000" font-family="sans-serif" font-size="13" lengthAdjust="spacingAndGlyphs" textLength="8" x="898.5" y="553.02">1</text><!--MD5=[87547a85ff221a325f669b871372b6e6]
link Simulator to Constants--><path d="M959.17,358.8131 C1084.26,385.9031 1272.78,448.3931 1360.5,586.9531 C1522.63,843.0431 1190.86,1144.7531 989.53,1295.3531 " fill="none" id="Simulator-&gt;Constants" style="stroke: #A80036; stroke-width: 1.0; stroke-dasharray: 7.0,7.0;"/><polygon fill="#A80036" points="985.4,1298.4431,995.0087,1296.2815,989.412,1295.4591,990.2343,1289.8624,985.4,1298.4431" style="stroke: #A80036; stroke-width: 1.0;"/><text fill="#000000" font-family="sans-serif" font-size="13" lengthAdjust="spacingAndGlyphs" textLength="30" x="1346.5" y="934.02">uses</text><!--MD5=[ca4bd7dbc188d05c213b640a8d1422a3]
reverse link Hidrometer to Pipe--><path d="M362.47,904.1631 C364.29,915.7331 366.9,927.1031 370.5,937.9531 C373.85,948.0531 378.18,958.0331 383.18,967.7431 " fill="none" id="Hidrometer&lt;-Pipe" style="stroke: #A80036; stroke-width: 1.0;"/><polygon fill="#A80036" points="360.74,891.0331,357.5591,897.5048,362.3095,902.93,365.4904,896.4584,360.74,891.0331" style="stroke: #A80036; stroke-width: 1.0;"/><text fill="#000000" font-family="sans-serif" font-size="13" lengthAdjust="spacingAndGlyphs" textLength="66" x="371.5" y="934.02">contains 2</text><!--MD5=[9c7074f94cd3a6809d6d6dacacbf15fe]
link Hidrometer to Pipe--><path d="M435.18,898.1031 C437.74,905.8031 440.2,913.4431 442.5,920.9531 C446.42,933.7231 450.16,947.1531 453.68,960.6131 " fill="none" id="Hidrometer-Pipe" style="stroke: #A80036; stroke-width: 1.0;"/><line style="stroke: #A80036; stroke-width: 1.0;" x1="458.3767" x2="450.6292" y1="962.7823" y2="964.7764"/><line style="stroke: #A80036; stroke-width: 1.0;" x1="457.6289" x2="449.8814" y1="959.877" y2="961.8711"/><line style="stroke: #A80036; stroke-width: 1.0;" x1="453.5059" x2="455.5" y1="959.9056" y2="967.6531"/><line style="stroke: #A80036; stroke-width: 1.0;" x1="430.2833" x2="437.8662" y1="896.0993" y2="893.5499"/><line style="stroke: #A80036; stroke-width: 1.0;" x1="431.2393" x2="438.8222" y1="898.9429" y2="896.3935"/><line style="stroke: #A80036; stroke-width: 1.0;" x1="435.3494" x2="432.8" y1="898.616" y2="891.0331"/><text fill="#000000" font-family="sans-serif" font-size="13" lengthAdjust="spacingAndGlyphs" textLength="66" x="447.5" y="934.02">2 (IN/OUT)</text><!--MD5=[8076a9bcec9a4684db7d50454f9b709e]
link Hidrometer to Constants--><path d="M661.41,891.2431 C689.12,914.1831 714.62,939.7431 735.5,967.9531 C803.15,1059.3631 831,1188.1731 842.47,1279.5831 " fill="none" id="Hidrometer-&gt;Constants" style="stroke: #A80036; stroke-width: 1.0; stroke-dasharray: 7.0,7.0;"/><polygon fill="#A80036" points="843.11,1284.7331,845.9728,1275.3095,842.4951,1279.7711,838.0336,1276.2934,843.11,1284.7331" style="stroke: #A80036; stroke-width: 1.0;"/><text fill="#000000" font-family="sans-serif" font-size="13" lengthAdjust="spacingAndGlyphs" textLength="30" x="831.5" y="1092.52">uses</text><!--MD5=[d0350e8bb17ea49c2e980e0e5b5ef7e5]
link Pipe to Constants--><path d="M627.07,1208.0931 C656.68,1232.3331 687.7,1257.7131 716.87,1281.5831 " fill="none" id="Pipe-&gt;Constants" style="stroke: #A80036; stroke-width: 1.0; stroke-dasharray: 7.0,7.0;"/><polygon fill="#A80036" points="720.79,1284.7931,716.3626,1275.9955,716.9221,1281.6246,711.293,1282.1841,720.79,1284.7931" style="stroke: #A80036; stroke-width: 1.0;"/><text fill="#000000" font-family="sans-serif" font-size="13" lengthAdjust="spacingAndGlyphs" textLength="30" x="678.5" y="1251.02">uses</text><!--MD5=[872dae068164c388a311c2ca33f65d77]
link Image to Constants--><path d="M923.2,820.7631 C908.45,936.4131 881.28,1149.5331 864.66,1279.9131 " fill="none" id="Image-&gt;Constants" style="stroke: #A80036; stroke-width: 1.0; stroke-dasharray: 7.0,7.0;"/><polygon fill="#A80036" points="864.02,1284.9031,869.1204,1276.4778,864.649,1279.9428,861.1839,1275.4714,864.02,1284.9031" style="stroke: #A80036; stroke-width: 1.0;"/><text fill="#000000" font-family="sans-serif" font-size="13" lengthAdjust="spacingAndGlyphs" textLength="30" x="904.5" y="1092.52">uses</text><!--MD5=[acc3417ca990ea064b852db2ea8799fd]
@startuml Hydrometer_Simulator_Class_Diagram

title Diagrama de Classes - Simulador de Hidrômetro

class Main {
    + main() : int
}

class Simulator {
    - running : atomic<bool>
    - hidrometer : unique_ptr<Hidrometer>
    - inputThread : thread
    - imageThread : thread
    - image : Image
    
    + Simulator()
    + ~Simulator()
    + getHidrometer() : Hidrometer*
    + getPipeIN() : Pipe*
    + getPipeOUT() : Pipe*
    + getCounter() : int
    + getHidrometerStatus() : bool
    + isRunning() : bool
    + run() : void
    + stop() : void
    + generateImage() : void
    
    - throwFlow() : void
    - updateImage() : void
    - imageUpdateLoop() : void
}

class Hidrometer {
    - pipeIN : unique_ptr<Pipe>
    - pipeOUT : unique_ptr<Pipe>
    - update_thread : thread
    - running : atomic<bool>
    - counter : atomic<int>
    - status : atomic<bool>
    - counterFloat : float
    
    + Hidrometer(diameterIN: float, lengthIN: float, roughnessIN: float, diameterOUT: float, lengthOUT: float, roughnessOUT: float)
    + ~Hidrometer()
    + getPipeIN() : Pipe*
    + getPipeOUT() : Pipe*
    + getCounter() : int
    + getStatus() : bool
    + activate() : void
    + deactivate() : void
    
    - update() : void
}

class Pipe {
    - flowRate : float
    - maxFlow : float
    - diameter : float
    - length : float
    - roughness : float
    
    + Pipe(diameter: float, length: float, roughness: float)
    + getDiameter() : float
    + getLength() : float
    + getRoughness() : float
    + getFlowRate() : float
    + getMaxFlow() : float
    + maxFlowForDeltaP(deltaP: double, rho: double, mu: double, g: double) : double
    + setFlowRate(flowRate: float) : void
}

class Image {
    - surface : cairo_surface_t*
    - cr : cairo_t*
    - width : int
    - height : int
    
    + Image(width: int, height: int)
    + ~Image()
    + generate_image(counter: int, flowRate: float) : void
}

class Constants {
    {static} + DIAMETER_IN : float = 0.1f
    {static} + LENGTH_IN : float = 1.0f  
    {static} + ROUGHNESS_IN : float = 0.0001f
    {static} + DIAMETER_OUT : float = 0.1f
    {static} + LENGTH_OUT : float = 1.0f
    {static} + ROUGHNESS_OUT : float = 0.0001f
    {static} + DEFAULT_WIDTH : int = 400
    {static} + DEFAULT_HEIGHT : int = 400
    {static} + M_PI : double = 3.14159265358979323846
    {static} + RHO : double = 998.0
    {static} + MU : double = 1.002e-3
    {static} + G : double = 9.80665
}

Main - -> Simulator : creates
Simulator *- - Hidrometer : contains
Simulator *- - Image : contains
Simulator ..> Constants : uses
Hidrometer *- - Pipe : contains 2
Hidrometer ..> Constants : uses
Pipe ..> Constants : uses
Image ..> Constants : uses

Simulator ||- -|| Hidrometer : "1"
Hidrometer ||- -|| Pipe : "2 (IN/OUT)"
Simulator ||- -|| Image : "1"

note top of Simulator : Gerencia threads para:\n- Geração de vazão\n- Atualização de imagem
note top of Hidrometer : Possui thread própria\npara atualização contínua
note right of Image : Utiliza biblioteca Cairo\npara geração de imagens PNG

Simulator : <<Controller>>
Hidrometer : <<Entity>>
Pipe : <<Entity>>
Image : <<Utility>>
Constants : <<Static>>

@enduml

PlantUML version 1.2020.02(Sun Mar 01 07:22:07 BRT 2020)
(GPL source distribution)
Java Runtime: OpenJDK Runtime Environment
JVM: OpenJDK 64-Bit Server VM
Java Version: 11.0.28+6-post-Ubuntu-1ubuntu122.04.1
Operating System: Linux
Default Encoding: UTF-8
Language: pt
Country: BR
--></g></svg>